<svg xmlns="http://www.w3.org/2000/svg" viewBox="0 0 510.24 192.04"><title>Element 1</title><g id="Ebene_2" data-name="Ebene 2"><g id="Ebene_1-2" data-name="Ebene 1"><path d="M94.8,12.62,86.21,30.84C72.9,22.78,59.58,19.45,50.29,19.45c-12.09,0-20,4.56-20,12.79,0,26.81,66.23,12.44,66.06,56.6,0,21.91-19.28,35.4-46.26,35.4A75.48,75.48,0,0,1,0,104.79L8.94,86.91c12.61,11.57,28.38,17.88,41.53,17.88,14.37,0,23-5.44,23-14.9,0-27.33-66.24-12.09-66.24-55.72C7.18,13.14,25.24,0,51.87,0A79.83,79.83,0,0,1,94.8,12.62Z" style="fill:#9ac163"/><path d="M170.84,123.54h-20.5V83.41L104.6.88h20.86l35,59.75L194.85.88h21l-45,81.83Z" style="fill:#9ac163"/><path d="M285.43.88c25.41,0,41.18,11.56,41.18,30.66,0,13.85-8.23,24.18-21.55,27.34,16.47,2.8,26.28,14.54,26.28,31,0,21-17,33.65-44.68,33.65h-54.5V.88ZM252.84,51.69h31.54c13.14,0,21-6.13,21-16.47s-7.89-15.95-21-15.95H252.84Zm0,53.45h31.54c16.12,0,25.76-6.31,25.76-17.87,0-10.87-9.64-17.35-25.76-17.35H252.84Z" style="fill:#9ac163"/><path d="M355.86,123.54V.88h20.68V123.54Z" style="fill:#9ac163"/><path d="M510.24,123.54H485.53L452.41,77.28l-32.94,46.26H395.28L440,60.63,398.44.88h24l30,42.58L482.55.88h24.18L465.55,59.75Z" style="fill:#9ac163"/><path d="M27.69,156.76l-1.87,4.12a19.91,19.91,0,0,0-10.6-3.24c-5,0-8.19,1.87-8.19,5.11,0,9.89,21.65,4.73,21.59,18.68,0,6.43-5.65,10.55-13.9,10.55A22,22,0,0,1,0,186.1l2-3.95a19.13,19.13,0,0,0,12.8,5.44c5.55,0,9-2.26,9-5.94.06-10.11-21.59-4.72-21.59-18.51,0-6,5.33-9.95,13.29-9.95A22.79,22.79,0,0,1,27.69,156.76Z" style="fill:#1d1d1b"/><path d="M37.63,191.82V153.36H42v38.46Z" style="fill:#1d1d1b"/><path d="M81.15,191.82,58.07,160.94v30.88H53.68V153.36h4.56l23.07,30.93V153.36h4.34v38.46Z" style="fill:#1d1d1b"/><path d="M128.07,173V187A23.78,23.78,0,0,1,113.78,192c-11.15,0-20-8.63-20-19.45s9-19.34,20.27-19.34a21.79,21.79,0,0,1,14.18,5.27l-2.53,3.3A17.68,17.68,0,0,0,114,157.37c-8.79,0-15.82,6.75-15.82,15.22s7.09,15.27,15.88,15.27a18.43,18.43,0,0,0,10.11-3.24V173Z" style="fill:#1d1d1b"/><path d="M160,187.64v4.18H138.73V153.36h4.39v34.28Z" style="fill:#1d1d1b"/><path d="M171.53,157.59v12.63h19.39v4.23H171.53v13.19h22.41v4.18H167.13V153.36h26.1v4.23Z" style="fill:#1d1d1b"/><path d="M232.4,153.36c9.5,0,15,4.72,15,12.91,0,8.51-5.5,13.4-15,13.4H222.35v12.15H218V153.36Zm-10.05,22.08h9.88c6.93,0,10.94-3.07,10.94-9.06,0-5.83-4-8.79-10.94-8.79h-9.88Z" style="fill:#1d1d1b"/><path d="M271.9,179.56c-.82.06-1.7.11-2.58.11H259.1v12.15h-4.39V153.36h14.61c9.61,0,15.16,4.72,15.16,12.91,0,6.37-3.07,10.66-8.62,12.47l9,13.08h-5Zm-2.58-4.12c7,0,10.93-3.07,10.93-9.06,0-5.83-3.95-8.79-10.93-8.79H259.1v17.85Z" style="fill:#1d1d1b"/><path d="M331.07,172.59c0,10.82-8.9,19.45-20.1,19.45s-20.17-8.63-20.17-19.45,8.9-19.34,20.17-19.34S331.07,161.76,331.07,172.59Zm-35.82,0c0,8.46,7.14,15.21,15.72,15.21a15.2,15.2,0,1,0,0-30.38C302.39,157.42,295.25,164.12,295.25,172.59Z" style="fill:#1d1d1b"/><path d="M353.54,153.36c9.51,0,15,4.72,15,12.91,0,8.51-5.49,13.4-15,13.4H343.49v12.15h-4.4V153.36Zm-10.05,22.08h9.89c6.92,0,10.93-3.07,10.93-9.06,0-5.83-4-8.79-10.93-8.79h-9.89Z" style="fill:#1d1d1b"/><path d="M380.25,157.59v12.63h19.39v4.23H380.25v13.19h22.41v4.18H375.85V153.36H402v4.23Z" style="fill:#1d1d1b"/><path d="M428.81,179.56c-.82.06-1.7.11-2.58.11H416v12.15h-4.39V153.36h14.61c9.62,0,15.16,4.72,15.16,12.91,0,6.37-3.07,10.66-8.62,12.47l9,13.08h-5Zm-2.58-4.12c7,0,10.93-3.07,10.93-9.06,0-5.83-4-8.79-10.93-8.79H416v17.85Z" style="fill:#1d1d1b"/><path d="M463,157.59v34.23h-4.39V157.59H446.12v-4.23h29.5v4.23Z" style="fill:#1d1d1b"/><path d="M495.62,191.82h-4.34v-13l-14.89-25.44H481l12.47,20,12.31-20h4.51l-14.62,25.27Z" style="fill:#1d1d1b"/></g></g></svg>